<svg viewBox="0 0 39 39" fill="none" xmlns="http://www.w3.org/2000/svg">
                <path
                    d="M9.86841 13.8421H2.28946V37.5263H9.86841V13.8421Z"
                    stroke="#eeeeee"
                    strokeWidth="2"
                />
                <path
                    d="M21.4474 13.8421H13.8684V37.5263H21.4474V22.4211C23.6052 18.8948 28.9737 19.2632 29.8684 23.1053V37.5263H37.4474V23.4211C36.9289 14.9299 27.8258 11.6314 22.5 16C22 16.5 21.36 16.4299 21.4474 15.3421V13.8421Z"
                    stroke="#eeeeee"
                    strokeWidth="2"
                />
                <path
                    d="M1.86841 6.15791C1.86841 8.48332 3.75352 10.3684 6.07893 10.3684C8.40434 10.3684 10.2895 8.48332 10.2895 6.15791C10.2895 3.8325 8.40434 1.94739 6.07893 1.94739C3.75352 1.94739 1.86841 3.8325 1.86841 6.15791Z"
                    stroke="#eeeeee"
                    strokeWidth="2"
                />
            </svg>