<svg viewBox="0 0 54 42" fill="none" xmlns="http://www.w3.org/2000/svg">
            <path
                d="M2 11.5735L13.343 20.285M13.343 20.285L27 30.4483L40.7024 20.285M13.343 20.285V39.5681H5.44828C3.54385 39.5681 2 38.0242 2 36.1198V7.08167C2 4.27514 4.27514 2 7.08167 2H7.67151C9.14533 2.1863 10.4408 2.98038 13.343 5.26679L27 15.7477L40.657 5.26679C43.5592 2.98038 44.8547 2.1863 46.3285 2H46.9183C49.7249 2 52 4.27514 52 7.08167V36.1198C52 38.0242 50.4562 39.5681 48.5517 39.5681H40.657L40.7024 20.285M40.7024 20.285L52 11.5735"
                stroke="#eeeeee"
                strokeWidth="2"
            />
        </svg>